<?xml version="1.0" encoding="UTF-8" standalone="no"?>
<!DOCTYPE svg PUBLIC "-//W3C//DTD SVG 1.1//EN" "http://www.w3.org/Graphics/SVG/1.1/DTD/svg11.dtd">
<svg width="100%" height="100%" viewBox="0 0 24 24" version="1.1" xmlns="http://www.w3.org/2000/svg" xmlns:xlink="http://www.w3.org/1999/xlink" xml:space="preserve"  style="fill-rule:evenodd;clip-rule:evenodd;stroke-linejoin:round;stroke-miterlimit:2;">
    <g transform="matrix(2.45757,0,0,2.45757,-25.4634,-17.3264)">
        <g>
            <path d="M20.127,9.492C20.127,8.144 19.033,7.05 17.686,7.05L12.803,7.05C11.455,7.05 10.361,8.144 10.361,9.492L10.361,14.375C10.361,15.722 11.455,16.816 12.803,16.816L17.686,16.816C19.033,16.816 20.127,15.722 20.127,14.375L20.127,9.492ZM18.567,13.211C18.117,13.414 17.628,13.52 17.134,13.52C15.227,13.52 13.657,11.95 13.657,10.043C13.657,9.549 13.763,9.06 13.966,8.61C12.724,9.172 11.921,10.415 11.921,11.779C11.921,13.686 13.491,15.256 15.398,15.256C16.762,15.256 18.005,14.454 18.567,13.211Z"/>
        </g>
    </g>
</svg>
