<?xml version="1.0" encoding="UTF-8" standalone="no"?>
<!DOCTYPE svg PUBLIC "-//W3C//DTD SVG 1.1//EN" "http://www.w3.org/Graphics/SVG/1.1/DTD/svg11.dtd">
<svg width="100%" height="100%" viewBox="0 0 24 24" version="1.1" xmlns="http://www.w3.org/2000/svg" xmlns:xlink="http://www.w3.org/1999/xlink" xml:space="preserve"  style="fill-rule:evenodd;clip-rule:evenodd;stroke-linejoin:round;stroke-miterlimit:2;">
    <g transform="matrix(2.45757,0,0,2.45757,-25.4634,-17.3264)">
        <g>
            <path d="M16.025,16.816L17.686,16.816C19.033,16.816 20.127,15.722 20.127,14.375L20.127,9.492C20.127,8.144 19.033,7.05 17.686,7.05L12.803,7.05C11.455,7.05 10.361,8.144 10.361,9.492L10.361,14.375C10.361,15.722 11.455,16.816 12.803,16.816L14.285,16.816L14.285,12.894L12.884,12.894L12.884,11.299L14.285,11.299L14.285,10.084C14.285,8.701 15.109,7.938 16.369,7.938C16.973,7.938 17.604,8.045 17.604,8.045L17.604,9.403L16.908,9.403C16.223,9.403 16.009,9.829 16.009,10.264L16.009,11.299L17.539,11.299L17.295,12.894L16.025,12.894L16.025,16.816Z"/>
        </g>
    </g>
</svg>
