<?xml version="1.0" encoding="UTF-8" standalone="no"?>
<!DOCTYPE svg PUBLIC "-//W3C//DTD SVG 1.1//EN" "http://www.w3.org/Graphics/SVG/1.1/DTD/svg11.dtd">
<svg width="100%" height="100%" viewBox="0 0 24 24" version="1.1" xmlns="http://www.w3.org/2000/svg" xmlns:xlink="http://www.w3.org/1999/xlink" xml:space="preserve"  style="fill-rule:evenodd;clip-rule:evenodd;stroke-linejoin:round;stroke-miterlimit:2;">
    <g transform="matrix(2.45757,0,0,2.45757,-25.4634,-17.3264)">
        <g>
            <path d="M20.127,9.492C20.127,8.144 19.033,7.05 17.686,7.05L12.803,7.05C11.455,7.05 10.361,8.144 10.361,9.492L10.361,14.375C10.361,15.722 11.455,16.816 12.803,16.816L17.686,16.816C19.033,16.816 20.127,15.722 20.127,14.375L20.127,9.492ZM18.039,13.027C18.329,13.2 18.812,13.413 18.89,13.77C18.929,13.944 18.895,14.125 18.828,14.288C18.6,14.843 18.034,15.197 17.46,15.307C16.912,15.411 16.46,15.237 15.952,15.068C15.5,14.919 15.061,14.7 14.656,14.453C13.845,13.956 13.143,13.289 12.579,12.523C12.406,12.289 12.247,12.046 12.1,11.795C11.904,11.462 11.731,11.112 11.641,10.737C11.603,10.582 11.583,10.42 11.582,10.259C11.576,9.691 11.792,9.118 12.241,8.752C12.501,8.54 12.886,8.447 13.179,8.613C13.496,8.793 13.661,9.245 13.809,9.562C13.924,9.809 14.054,10.136 14.006,10.415C13.959,10.694 13.738,10.928 13.562,11.135C13.444,11.275 13.426,11.394 13.525,11.544C14.106,12.514 14.914,13.218 15.968,13.638C16.112,13.695 16.223,13.678 16.317,13.562C16.498,13.338 16.678,12.899 16.959,12.784C17.325,12.635 17.729,12.842 18.039,13.027Z"/>
        </g>
    </g>
</svg>
