<?xml version="1.0" encoding="UTF-8" standalone="no"?>
<!DOCTYPE svg PUBLIC "-//W3C//DTD SVG 1.1//EN" "http://www.w3.org/Graphics/SVG/1.1/DTD/svg11.dtd">
<svg width="100%" height="100%" viewBox="0 0 24 24" version="1.1" xmlns="http://www.w3.org/2000/svg" xmlns:xlink="http://www.w3.org/1999/xlink" xml:space="preserve"  style="fill-rule:evenodd;clip-rule:evenodd;stroke-linejoin:round;stroke-miterlimit:2;">
    <g id="icons">
        <path id="whatsapp" d="M24,1.44L24,22.56C24,23.355 23.355,24 22.56,24L1.44,24C0.645,24 -0,23.355 -0,22.56L-0,1.44C-0,0.645 0.645,-0 1.44,-0L22.56,-0C23.355,-0 24,0.645 24,1.44ZM2.604,21.419L7.669,20.062C9.031,20.801 10.551,21.19 12.092,21.19C17.223,21.19 21.396,17.017 21.396,11.886C21.396,6.755 17.223,2.581 12.092,2.581C6.961,2.581 2.788,6.755 2.788,11.886C2.788,13.455 3.19,15 3.955,16.38L2.604,21.419ZM7.921,18.174L5.09,18.932L5.845,16.119L5.649,15.797C4.927,14.611 4.546,13.259 4.546,11.886C4.546,7.724 7.932,4.34 12.092,4.34C16.253,4.34 19.638,7.724 19.638,11.886C19.638,16.046 16.253,19.432 12.092,19.432C10.744,19.432 9.412,19.062 8.24,18.366L7.921,18.174ZM15.553,13.179C15.171,12.951 14.673,12.696 14.222,12.879C13.875,13.021 13.653,13.562 13.429,13.839C13.315,13.982 13.177,14.002 13,13.932C11.7,13.415 10.705,12.547 9.988,11.351C9.867,11.166 9.888,11.019 10.034,10.848C10.252,10.592 10.523,10.304 10.581,9.959C10.64,9.615 10.48,9.213 10.338,8.908C10.156,8.518 9.953,7.96 9.562,7.739C9.201,7.534 8.726,7.648 8.406,7.91C7.853,8.361 7.586,9.067 7.594,9.768C7.595,9.966 7.619,10.166 7.667,10.356C7.777,10.819 7.99,11.25 8.232,11.66C8.413,11.969 8.609,12.269 8.822,12.558C9.517,13.502 10.383,14.324 11.383,14.936C11.882,15.242 12.422,15.512 12.98,15.695C13.606,15.903 14.164,16.118 14.839,15.989C15.546,15.854 16.244,15.417 16.525,14.734C16.607,14.533 16.649,14.309 16.602,14.095C16.506,13.655 15.91,13.392 15.553,13.179Z" style="fill:rgb(166,166,166);"/>
    </g>
</svg>
