<?xml version="1.0" encoding="UTF-8" standalone="no"?>
<!DOCTYPE svg PUBLIC "-//W3C//DTD SVG 1.1//EN" "http://www.w3.org/Graphics/SVG/1.1/DTD/svg11.dtd">
<svg width="100%" height="100%" viewBox="0 0 24 24" version="1.1" xmlns="http://www.w3.org/2000/svg" xmlns:xlink="http://www.w3.org/1999/xlink" xml:space="preserve"  style="fill-rule:evenodd;clip-rule:evenodd;stroke-linejoin:round;stroke-miterlimit:2;">
    <g id="icons">
        <path id="youtube" d="M24,1.44L24,22.56C24,23.355 23.355,24 22.56,24L1.44,24C0.645,24 -0,23.355 -0,22.56L-0,1.44C-0,0.645 0.645,-0 1.44,-0L22.56,-0C23.355,-0 24,0.645 24,1.44ZM22.342,6.771C22.093,5.836 21.363,5.1 20.434,4.85C18.751,4.396 12,4.396 12,4.396C12,4.396 5.25,4.396 3.566,4.85C2.638,5.1 1.907,5.836 1.659,6.771C1.207,8.465 1.207,12 1.207,12C1.207,12 1.207,15.536 1.659,17.229C1.907,18.164 2.638,18.9 3.566,19.15C5.25,19.604 12,19.604 12,19.604C12,19.604 18.751,19.604 20.434,19.15C21.363,18.9 22.093,18.164 22.342,17.229C22.793,15.536 22.793,12 22.793,12C22.793,12 22.793,8.465 22.342,6.771ZM9.792,15.21L9.792,8.79L15.434,12L9.792,15.21Z" style="fill:rgb(166,166,166);"/>
    </g>
</svg>
