<?xml version="1.0" standalone="no"?>
<!DOCTYPE svg PUBLIC "-//W3C//DTD SVG 20010904//EN"
 "http://www.w3.org/TR/2001/REC-SVG-20010904/DTD/svg10.dtd">
<svg version="1.0" xmlns="http://www.w3.org/2000/svg"
 width="700.000000pt" height="700.000000pt" viewBox="0 0 700.000000 700.000000"
 preserveAspectRatio="xMidYMid meet">
<metadata>
Created by potrace 1.14, written by Peter Selinger 2001-2017
</metadata>
<g transform="translate(0.000000,700.000000) scale(0.100000,-0.100000)"
fill="#000000" stroke="none">
<path d="M177 6763 c-6 -14 0 -3435 7 -3508 19 -210 41 -345 87 -525 145 -579
432 -1085 853 -1506 197 -196 293 -276 491 -410 320 -216 643 -367 985 -459 8
-2 40 -11 70 -19 30 -8 66 -17 80 -20 14 -2 45 -9 70 -15 43 -9 187 -33 275
-45 220 -30 631 -28 840 4 33 5 80 12 105 15 25 3 52 7 60 10 8 2 31 7 50 10
83 14 280 64 370 95 100 34 212 75 247 91 23 11 44 19 47 19 24 0 372 180 446
231 14 9 67 45 119 79 459 303 855 755 1107 1260 104 209 189 436 240 638 9
36 44 199 49 227 23 137 27 166 41 315 7 86 14 3485 6 3508 -3 9 -345 12
-1663 12 l-1659 0 0 -858 0 -857 781 0 c429 0 785 -3 791 -6 11 -7 14 -1599 4
-1688 -9 -73 -17 -124 -28 -171 -5 -25 -11 -54 -14 -65 -22 -109 -128 -350
-207 -467 -126 -189 -288 -347 -482 -470 -153 -98 -377 -186 -545 -214 -14 -2
-36 -7 -50 -10 -13 -3 -54 -8 -90 -11 -367 -30 -699 47 -995 230 -418 258
-696 700 -740 1177 -4 41 -7 825 -7 1743 l0 1667 -869 0 c-477 0 -870 -3 -872
-7z"/>
</g>
</svg>
