<?xml version="1.0" encoding="UTF-8" standalone="no"?>
<!DOCTYPE svg PUBLIC "-//W3C//DTD SVG 1.1//EN" "http://www.w3.org/Graphics/SVG/1.1/DTD/svg11.dtd">
<svg width="100%" height="100%" viewBox="0 0 20 20" version="1.1" xmlns="http://www.w3.org/2000/svg" xmlns:xlink="http://www.w3.org/1999/xlink" xml:space="preserve"  style="fill-rule:evenodd;clip-rule:evenodd;stroke-linejoin:round;stroke-miterlimit:2;">
    <g transform="matrix(1,0,0,1,-1.29501,0)">
        <path d="M14.713,11.089L5.426,11.089C4.846,11.089 4.376,10.619 4.376,10.039C4.376,9.46 4.846,8.989 5.426,8.989L14.792,8.989L12.509,6.707C12.329,6.521 12.229,6.271 12.229,6.012C12.229,5.464 12.68,5.012 13.229,5.012C13.488,5.012 13.737,5.113 13.923,5.293L17.923,9.293C18.311,9.681 18.311,10.319 17.923,10.707L13.923,14.707C13.535,15.095 12.897,15.095 12.509,14.707C12.121,14.319 12.121,13.681 12.509,13.293L14.713,11.089Z"/>
    </g>
</svg>
