<?xml version="1.0" encoding="UTF-8" standalone="no"?>
<!DOCTYPE svg PUBLIC "-//W3C//DTD SVG 1.1//EN" "http://www.w3.org/Graphics/SVG/1.1/DTD/svg11.dtd">
<svg width="100%" height="100%" viewBox="0 0 50 50" version="1.1" xmlns="http://www.w3.org/2000/svg" xmlns:xlink="http://www.w3.org/1999/xlink" xml:space="preserve" xmlns:serif="http://www.serif.com/" style="fill-rule:evenodd;clip-rule:evenodd;stroke-linejoin:round;stroke-miterlimit:2;">
    <g transform="matrix(2.20791,0,0,2.12461,0.684258,1.6293)">
        <g transform="matrix(1.09987,0,0,1.09987,-5.9536,-1.09857)">
            <path d="M25.439,1.574L25.439,11C25.439,16.507 20.933,21.013 15.426,21.013C9.919,21.013 5.413,16.507 5.413,11L5.413,1.574C5.413,1.25 5.676,0.987 6,0.987L10.942,0.987C11.266,0.987 11.529,1.25 11.529,1.574L11.529,11C11.529,13.144 13.282,14.897 15.426,14.897C17.57,14.897 19.323,13.144 19.323,11L19.323,7.103L15.426,7.103C15.102,7.103 14.839,6.84 14.839,6.516L14.839,1.574C14.839,1.25 15.102,0.987 15.426,0.987L24.852,0.987C25.176,0.987 25.439,1.25 25.439,1.574Z" style="fill:white;"/>
        </g>
        <g transform="matrix(0.0374494,0,0,0.0374494,-169.439,-22.5079)">
            <path d="M5095.4,617.916L4818.56,617.916L4818.56,763.048L4950.26,763.048L4950.26,894.754C4950.26,967.19 4891,1026.46 4818.56,1026.46C4746.12,1026.46 4686.86,967.19 4686.86,894.754L4686.86,617.916L4541.72,617.916L4541.72,894.754C4541.72,1047.02 4666.29,1171.59 4818.56,1171.59C4970.82,1171.59 5095.4,1047.02 5095.4,894.754L5095.4,617.916Z" style="fill:rgb(234,88,12);"/>
        </g>
    </g>
</svg>
