<?xml version="1.0" encoding="UTF-8" standalone="no"?>
<!DOCTYPE svg PUBLIC "-//W3C//DTD SVG 1.1//EN" "http://www.w3.org/Graphics/SVG/1.1/DTD/svg11.dtd">
<svg width="100%" height="100%" viewBox="0 0 24 24" version="1.1" xmlns="http://www.w3.org/2000/svg" xmlns:xlink="http://www.w3.org/1999/xlink" xml:space="preserve"  style="fill-rule:evenodd;clip-rule:evenodd;stroke-linejoin:round;stroke-miterlimit:2;">
    <g transform="matrix(2.45757,0,0,2.45757,-25.4634,-17.3264)">
        <g>
            <path d="M20.127,9.492C20.127,8.144 19.033,7.05 17.686,7.05L12.803,7.05C11.455,7.05 10.361,8.144 10.361,9.492L10.361,14.375C10.361,15.722 11.455,16.816 12.803,16.816L17.686,16.816C19.033,16.816 20.127,15.722 20.127,14.375L20.127,9.492ZM12.369,9.405C12.365,9.401 12.361,9.398 12.357,9.394C12.451,9.355 12.555,9.333 12.663,9.333L17.825,9.333C17.939,9.333 18.046,9.357 18.144,9.399C18.121,9.413 18.098,9.43 18.079,9.451L15.772,12.069C15.639,12.221 15.446,12.307 15.244,12.307C15.042,12.307 14.85,12.221 14.716,12.069L12.369,9.405ZM18.5,9.707C18.577,9.829 18.623,9.975 18.623,10.13L18.623,13.736C18.623,14.176 18.265,14.533 17.825,14.533L12.663,14.533C12.223,14.533 11.866,14.176 11.866,13.736L11.866,10.13C11.866,9.979 11.908,9.839 11.981,9.719C11.985,9.725 11.988,9.731 11.993,9.736L14.341,12.4C14.57,12.659 14.899,12.808 15.244,12.808C15.59,12.808 15.919,12.659 16.148,12.4L18.455,9.783C18.475,9.76 18.49,9.734 18.5,9.707Z"/>
        </g>
    </g>
</svg>
