<?xml version="1.0" encoding="UTF-8" standalone="no"?>
<!DOCTYPE svg PUBLIC "-//W3C//DTD SVG 1.1//EN" "http://www.w3.org/Graphics/SVG/1.1/DTD/svg11.dtd">
<svg width="100%" height="100%" viewBox="0 0 24 24" version="1.1" xmlns="http://www.w3.org/2000/svg" xmlns:xlink="http://www.w3.org/1999/xlink" xml:space="preserve"  style="fill-rule:evenodd;clip-rule:evenodd;stroke-linejoin:round;stroke-miterlimit:2;">
    <g transform="matrix(1.01644,0,0,1.01644,-12.1293,11.9726)">
        <g>
            <path d="M35.545,-5.876C35.545,-9.134 32.9,-11.779 29.642,-11.779L17.836,-11.779C14.578,-11.779 11.933,-9.134 11.933,-5.876L11.933,5.93C11.933,9.188 14.578,11.833 17.836,11.833L29.642,11.833C32.9,11.833 35.545,9.188 35.545,5.93L35.545,-5.876ZM23.739,-9.811C24.414,-9.811 24.969,-9.256 24.969,-8.582L24.969,-7.352C24.969,-6.677 24.414,-6.122 23.739,-6.122C23.064,-6.122 22.509,-6.677 22.509,-7.352L22.509,-8.582C22.509,-9.256 23.064,-9.811 23.739,-9.811ZM16.36,1.257C17.035,1.257 17.59,0.702 17.59,0.027C17.59,-0.648 17.035,-1.203 16.36,-1.203L15.131,-1.203C14.456,-1.203 13.901,-0.648 13.901,0.027C13.901,0.702 14.456,1.257 15.131,1.257L16.36,1.257ZM17.652,-4.322C17.882,-4.091 18.195,-3.961 18.522,-3.961C19.196,-3.961 19.752,-4.516 19.752,-5.191C19.752,-5.517 19.622,-5.83 19.392,-6.06L18.521,-6.93C18.292,-7.151 17.985,-7.275 17.667,-7.275C16.992,-7.275 16.437,-6.72 16.437,-6.045C16.437,-5.727 16.561,-5.42 16.782,-5.191L17.652,-4.322ZM19.39,6.114L18.521,6.984C18.292,7.205 17.985,7.329 17.667,7.329C16.992,7.329 16.437,6.774 16.437,6.099C16.437,5.781 16.561,5.474 16.782,5.245L17.652,4.375C17.881,4.154 18.187,4.03 18.506,4.03C19.181,4.03 19.736,4.585 19.736,5.26C19.736,5.579 19.612,5.885 19.39,6.114ZM23.739,6.176C24.414,6.176 24.969,6.731 24.969,7.406L24.969,8.635C24.969,9.31 24.414,9.865 23.739,9.865C23.064,9.865 22.509,9.31 22.509,8.635L22.509,7.406C22.509,6.731 23.064,6.176 23.739,6.176ZM32.347,1.257C33.022,1.257 33.577,0.702 33.577,0.027C33.577,-0.648 33.022,-1.203 32.347,-1.203L31.118,-1.203C30.443,-1.203 29.888,-0.648 29.888,0.027C29.888,0.702 30.443,1.257 31.118,1.257L32.347,1.257ZM30.695,-6.93C31.172,-6.453 31.171,-5.668 30.695,-5.191L29.826,-4.322C29.595,-4.082 29.275,-3.946 28.942,-3.946C28.267,-3.946 27.712,-4.501 27.712,-5.176C27.712,-5.509 27.848,-5.829 28.087,-6.06L28.957,-6.93C29.434,-7.407 30.218,-7.407 30.695,-6.93ZM28.658,0.027C28.658,2.725 26.438,4.946 23.739,4.946C21.04,4.946 18.82,2.725 18.82,0.027C18.82,-2.672 21.04,-4.892 23.739,-4.892C26.438,-4.892 28.658,-2.672 28.658,0.027ZM28.087,6.114L28.957,6.984C29.186,7.205 29.493,7.329 29.811,7.329C30.486,7.329 31.041,6.774 31.041,6.099C31.041,5.781 30.917,5.474 30.696,5.245L29.826,4.375C29.597,4.154 29.291,4.03 28.972,4.03C28.297,4.03 27.742,4.585 27.742,5.26C27.742,5.579 27.866,5.885 28.087,6.114Z"/>
        </g>
    </g>
</svg>
